<svg width="200" height="200" xmlns="http://www.w3.org/2000/svg" role="img">
 <title>Étape 2 annonceur — Réseau de diffuseurs WhatsApp</title>

 <desc>Réseau rayonnant depuis une pub centrale vers plusieurs diffuseurs à Cotonou</desc>
 <g>
  <title>Layer 1</title>
  <rect id="svg_1" fill="#efe5fd" rx="16" height="200" width="200"/>
  <line id="svg_2" stroke-dasharray="4,3" stroke-width="1.5" stroke="#c49ef5" y2="45" x2="40" y1="100" x1="100"/>
  <line id="svg_3" stroke-dasharray="4,3" stroke-width="1.5" stroke="#c49ef5" y2="45" x2="160" y1="100" x1="100"/>
  <line id="svg_4" stroke-dasharray="4,3" stroke-width="1.5" stroke="#c49ef5" y2="130" x2="28" y1="100" x1="100"/>
  <line id="svg_5" stroke-dasharray="4,3" stroke-width="1.5" stroke="#c49ef5" y2="130" x2="172" y1="100" x1="100"/>
  <line id="svg_6" stroke-dasharray="4,3" stroke-width="1.5" stroke="#c49ef5" y2="168" x2="100" y1="100" x1="100"/>
  <circle id="svg_7" fill="#4c07b" r="30" cy="100" cx="100"/>
  <circle id="svg_8" fill="#2d0470" r="24" cy="100" cx="100"/>
  <text id="svg_9" fill="#efe5fd" font-weight="bold" font-size="8" font-family="Arial, sans-serif" text-anchor="middle" y="97.25314" x="100">VOTRE</text>
  <text id="svg_10" fill="#c49ef5" font-weight="bold" font-size="8" font-family="Arial, sans-serif" text-anchor="middle" y="107.75188" x="100">PUB</text>
  <circle id="svg_11" fill="#c49ef5" r="18" cy="45" cx="40"/>
  <circle id="svg_12" fill="#4c07b" r="8" cy="38" cx="40"/>
  <text id="svg_14" font-weight="bold" fill="#efe5fd" font-size="7" font-family="Arial, sans-serif" text-anchor="middle" y="40.24561" x="40">A</text>
  <circle id="svg_15" fill="#c49ef5" r="18" cy="45" cx="160"/>
  <circle id="svg_16" fill="#4c07b" r="8" cy="38" cx="160"/>
  <text id="svg_18" font-weight="bold" fill="#efe5fd" font-size="7" font-family="Arial, sans-serif" text-anchor="middle" y="40.24561" x="160">B</text>
  <circle id="svg_19" fill="#c49ef5" r="18" cy="130" cx="28"/>
  <circle id="svg_20" fill="#4c07b" r="8" cy="123" cx="28"/>
  <path stroke="null" id="svg_21" fill="#4c07b" d="m15.75439,141.49623q12.24561,-16.51632 24.49121,0"/>
  <text id="svg_22" font-weight="bold" fill="#efe5fd" font-size="7" font-family="Arial, sans-serif" text-anchor="middle" y="125.24561" x="28">C</text>
  <circle id="svg_23" fill="#c49ef5" r="18" cy="130" cx="172"/>
  <circle id="svg_24" fill="#4c07b" r="8" cy="123" cx="172"/>
  <text id="svg_26" font-weight="bold" fill="#efe5fd" font-size="7" font-family="Arial, sans-serif" text-anchor="middle" y="125.24561" x="172">D</text>
  <circle id="svg_27" fill="#c49ef5" r="18" cy="175" cx="100"/>
  <circle id="svg_28" fill="#4c07b" r="8" cy="168" cx="100"/>
  <text id="svg_30" font-weight="bold" fill="#efe5fd" font-size="7" font-family="Arial, sans-serif" text-anchor="middle" y="170.49623" x="100">E</text>
  <path stroke="null" id="svg_31" fill="#4c07b" d="m87.68449,186.85981q12.24561,-16.51631 24.49122,0"/>
  <path stroke="null" id="svg_32" fill="#4c07b" d="m159.86521,141.99749q12.24561,-16.51631 24.49122,0"/>
  <path stroke="null" id="svg_33" fill="#4c07b" d="m27.78451,57.03475q12.24561,-16.51631 24.49122,0"/>
  <path stroke="null" id="svg_34" fill="#4c07b" d="m147.58447,56.5335q12.24561,-16.51631 24.49122,0"/>
 </g>
</svg>