<svg width="200" height="200" xmlns="http://www.w3.org/2000/svg" role="img">
 <title>Étape 2 — Choisir une mission disponible</title>

 <desc>Liste de missions avec montants FCFA et sélection</desc>
 <g>
  <title>Layer 1</title>
  <rect id="svg_1" fill="#efe5fd" rx="16" height="200" width="200"/>
  <text id="svg_2" fill="#2d0470" font-weight="bold" font-size="10" font-family="Arial, sans-serif" text-anchor="middle" y="30" x="100">Missions disponibles</text>
  <rect id="svg_3" stroke="#c49ef5" fill="#ffffff" rx="8" height="38" width="160" y="40" x="20"/>
  <rect id="svg_4" fill="#c49ef5" rx="4" height="20" width="24" y="48" x="28"/>
  <text id="svg_5" font-weight="bold" fill="#2d0470" font-size="8" font-family="Arial, sans-serif" text-anchor="middle" y="61" x="40">AD</text>
  <text id="svg_6" fill="#2d0470" font-weight="bold" font-size="8" font-family="Arial, sans-serif" y="55" x="62">Salon Élégance</text>
  <text id="svg_7" fill="#5F5E5A" font-size="7" font-family="Arial, sans-serif" y="66" x="62">Cotonou · 24h</text>
  <rect id="svg_8" fill="#4c07b" rx="4" height="16" width="30" y="50" x="142"/>
  <text id="svg_9" fill="#ffffff" font-weight="bold" font-size="8" font-family="Arial, sans-serif" text-anchor="middle" y="61.5" x="157">500 F</text>
  <rect id="svg_10" stroke="#c49ef5" fill="#ffffff" rx="8" height="38" width="160" y="84" x="20"/>
  <rect id="svg_11" fill="#c49ef5" rx="4" height="20" width="24" y="92" x="28"/>
  <text id="svg_12" font-weight="bold" fill="#2d0470" font-size="8" font-family="Arial, sans-serif" text-anchor="middle" y="105" x="40">PM</text>
  <text id="svg_13" fill="#2d0470" font-weight="bold" font-size="8" font-family="Arial, sans-serif" y="99" x="62">PharmaPlus Bénin</text>
  <text id="svg_14" fill="#5F5E5A" font-size="7" font-family="Arial, sans-serif" y="110" x="62">Cotonou · 24h</text>
  <rect id="svg_15" fill="#4c07b" rx="4" height="16" width="30" y="94" x="142"/>
  <text id="svg_16" fill="#ffffff" font-weight="bold" font-size="8" font-family="Arial, sans-serif" text-anchor="middle" y="105.5" x="157">800 F</text>
  <rect id="svg_17" fill="#4c07b" rx="8" height="38" width="160" y="128" x="20"/>
  <rect id="svg_18" fill="#2d0470" rx="4" height="20" width="24" y="136" x="28"/>
  <text id="svg_19" font-weight="bold" fill="#c49ef5" font-size="8" font-family="Arial, sans-serif" text-anchor="middle" y="149" x="40">MX</text>
  <text id="svg_20" fill="#efe5fd" font-weight="bold" font-size="8" font-family="Arial, sans-serif" y="143" x="62">Moto Express BJ</text>
  <text id="svg_21" fill="#c49ef5" font-size="7" font-family="Arial, sans-serif" y="154" x="62">Cotonou · 24h</text>
  <rect id="svg_22" fill="#2d0470" rx="4" height="16" width="36" y="136" x="138"/>
  <text id="svg_23" fill="#c49ef5" font-weight="bold" font-size="8" font-family="Arial, sans-serif" text-anchor="middle" y="147.5" x="156">2 000 F</text>
  <polyline id="svg_25" stroke-linejoin="round" stroke-linecap="round" stroke-width="1.8" stroke="#4c07b" fill="none" points="167,136 170,139 174,132"/>
 </g>
</svg>